PathFileType	4	(X/Y/Z)	s02c0202.trc
DataRate	CameraRate	NumFrames	NumMarkers	Units	OrigDataRate	OrigDataStartFrame	OrigNumFrames
200	200	6	50	mm	200	500	2000
Frame#	Time	racr			lacr			c7			jug			rlel			rdr			llel			ldr			s2			lic			ric			lasi			rasi			rpsi			lpsi			rgt			lgt			rth1			rth2			rth3			rth4			rlfc			rmfc			rsh1			rsh2			rsh3			rsh4			rlmal			rmmal			rtoe			rmt5			rmt1			lth1			lth2			lth4			lth3			llfc			lmfc			lsh1			lsh2			lsh3			lsh4			llmal			lmmal			lcal			ltoe			lmt5			SBIKE			LBIKE			RBIKE			
		X1	Y1	Z1	X2	Y2	Z2	X3	Y3	Z3	X4	Y4	Z4	X5	Y5	Z5	X6	Y6	Z6	X7	Y7	Z7	X8	Y8	Z8	X9	Y9	Z9	X10	Y10	Z10	X11	Y11	Z11	X12	Y12	Z12	X13	Y13	Z13	X14	Y14	Z14	X15	Y15	Z15	X16	Y16	Z16	X17	Y17	Z17	X18	Y18	Z18	X19	Y19	Z19	X20	Y20	Z20	X21	Y21	Z21	X22	Y22	Z22	X23	Y23	Z23	X24	Y24	Z24	X25	Y25	Z25	X26	Y26	Z26	X27	Y27	Z27	X28	Y28	Z28	X29	Y29	Z29	X30	Y30	Z30	X31	Y31	Z31	X32	Y32	Z32	X33	Y33	Z33	X34	Y34	Z34	X35	Y35	Z35	X36	Y36	Z36	X37	Y37	Z37	X38	Y38	Z38	X39	Y39	Z39	X40	Y40	Z40	X41	Y41	Z41	X42	Y42	Z42	X43	Y43	Z43	X44	Y44	Z44	X45	Y45	Z45	X46	Y46	Z46	X47	Y47	Z47	X48	Y48	Z48	X49	Y49	Z49	X50	Y50	Z50	
500	2.5000	554.535955	1197.702528	-253.588793	457.213284	1191.740773	-565.748180	496.222482	1232.155027	-427.124086	443.786805	1108.771297	-391.016211	531.830431	996.292285	-83.755521	698.928973	882.188589	-132.129872	463.371150	921.369765	-608.249412	676.437585	883.568189	-521.248116	-25.716359	1135.260110	-291.941346	102.143627	1129.365096	-435.422534	121.470891	1109.085010	-160.033777	141.164097	1092.836405	-412.606210	169.059721	1078.662815	-192.896122	5.281516	1163.918668	-248.938761	1.843339	1177.938940	-331.784672	88.151089	1018.566134	-130.835264	47.071714	1055.153356	-483.298024	176.340518	958.910502	-145.014810	245.396110	906.788806	-162.287115	286.777387	832.139323	-151.237517	264.962366	925.018502	-188.626759	333.163342	704.094656	-195.635426	299.997279	689.078775	-299.293826	285.708337	605.927584	-168.320049	251.092638	523.650527	-180.242704	189.819769	465.615548	-165.504400	259.521145	517.259665	-218.362631	106.807060	369.142253	-156.216364	123.339668	379.686400	-240.777395	262.066617	199.460872	-189.174452	161.307940	245.539433	-137.692187	190.593524	233.003416	-243.961446	176.204152	973.526363	-507.865986	257.996516	969.783221	-503.888066	276.283212	997.908957	-488.707368	317.506984	903.335843	-507.282403	403.647214	843.258561	-488.541173	415.124521	817.545047	-386.150803	392.062814	738.969179	-507.531925	390.022991	654.154638	-489.767663	343.564189	576.395827	-490.405773	408.121600	652.959942	-453.294760	293.334525	478.022663	-474.376058	312.273233	477.576983	-396.196561	237.301254	408.222751	-434.895779	520.792663	456.343539	-453.116639	418.830111	412.639353	-510.284515	-165.095681	854.637726	-322.247361	32.760976	81.274304	-515.407407	32.913584	81.233306	-115.723149	
501	2.5050	555.527061	1196.167952	-254.048679	458.078438	1189.734853	-565.680309	497.269719	1230.217496	-427.596421	444.308878	1107.203386	-390.995534	531.960914	996.051781	-83.079023	698.894775	882.230910	-132.041004	463.057897	919.512201	-608.202078	676.204646	883.325622	-521.200082	-25.043848	1135.779876	-292.485572	103.142358	1129.014569	-435.638815	121.643615	1109.446477	-160.180204	142.005322	1092.453772	-412.600328	169.171616	1078.785383	-192.895177	5.879949	1164.558649	-249.436044	2.722516	1178.256284	-332.368947	88.309320	1019.222665	-130.726641	47.967708	1054.807161	-483.335431	176.786316	959.921331	-144.759029	246.134256	908.179500	-162.076372	287.978847	833.885141	-151.086421	265.481513	926.493222	-188.547725	334.950861	705.839087	-195.272618	301.844714	690.910284	-299.000978	286.554341	607.973938	-168.181383	251.281317	526.014793	-180.149346	189.342518	468.589683	-165.502944	259.642476	519.572061	-218.305258	105.450026	373.181074	-156.222209	121.838179	383.821248	-240.741321	259.765916	202.776966	-189.204529	159.179051	249.368004	-137.702667	188.295587	236.607127	-243.981801	176.418411	972.261013	-507.788769	258.340028	967.763272	-503.627798	276.853254	995.776076	-488.417918	317.259333	900.802022	-506.733761	402.749749	840.244980	-487.809707	414.041699	814.524538	-385.323719	391.743005	735.905655	-506.863823	390.547616	650.960192	-489.229356	344.785059	572.812580	-489.997850	408.607860	649.923391	-452.769066	295.428095	473.987569	-474.178383	314.804894	473.281578	-395.699095	239.559305	404.017531	-434.950344	523.048446	452.436730	-452.879920	421.198757	408.754205	-510.236750	-165.121425	854.501715	-322.793112	32.773029	81.279996	-515.414282	32.907818	81.254982	-115.728502	
502	2.5100	556.537000	1194.831991	-254.618946	458.929601	1187.789585	-565.786881	498.243737	1228.385793	-427.933565	445.250665	1105.497213	-390.958150	532.216400	995.879983	-82.367498	698.923713	882.395912	-131.915122	462.816494	917.770918	-608.147606	675.976905	883.134855	-521.221795	-24.236323	1136.178695	-293.064385	104.099674	1128.808546	-436.055402	121.881533	1109.844661	-160.341661	142.894360	1092.271279	-412.859437	169.315744	1078.899120	-192.947911	6.570498	1165.163880	-249.929219	3.623736	1178.532480	-333.015878	88.531725	1019.818063	-130.559898	48.878124	1054.538350	-483.521905	177.235009	960.843186	-144.557329	246.840692	909.604844	-162.015704	289.163372	835.509427	-150.954898	266.089989	928.035406	-188.373964	336.845216	707.681602	-194.823413	303.768471	692.801707	-298.821486	287.767367	609.910543	-168.049731	251.649041	528.497935	-180.051836	189.025828	471.851162	-165.459303	259.864575	521.938005	-218.227345	104.057428	377.331458	-156.226011	120.804120	387.711485	-240.706490	257.442861	206.228052	-189.163826	157.164987	253.308938	-137.747286	186.628763	240.428059	-243.889762	176.637336	970.988119	-507.715242	258.661848	965.737538	-503.285918	277.375985	993.624809	-488.160868	316.993972	898.292636	-506.207701	402.149431	837.173521	-486.919438	413.051995	811.190521	-384.703499	391.365715	732.746709	-506.284649	390.962912	647.794207	-488.862058	345.893990	569.219412	-489.692046	409.118619	646.904648	-452.374509	297.493057	469.927328	-473.946884	316.447458	469.185234	-395.918231	241.932968	399.951534	-434.813242	525.295424	448.326248	-452.643094	423.547164	404.757254	-510.079571	-165.067152	854.467808	-323.111238	32.773220	81.269613	-515.408810	32.918550	81.255688	-115.726550	
503	2.5150	557.488073	1193.538591	-255.045328	459.888995	1185.862870	-565.807288	499.251197	1226.732188	-428.283474	446.027889	1104.042552	-390.977615	532.485481	995.764253	-81.707621	698.870727	882.220704	-131.851019	462.580444	916.077516	-608.102565	675.772052	882.989026	-521.279066	-23.690179	1136.745071	-293.511928	104.981299	1128.545449	-436.157782	122.067029	1110.151850	-160.545530	143.610944	1091.964745	-412.749915	169.470468	1079.027808	-193.006974	7.222620	1165.618484	-250.483444	4.445843	1178.843828	-333.638663	88.721153	1020.477436	-130.429309	49.733237	1054.215289	-483.688684	177.632118	961.927238	-144.427073	247.659113	911.048962	-161.759857	290.368379	837.070031	-150.875005	266.700631	929.514796	-188.347242	338.804952	709.548894	-194.411659	305.731157	694.737123	-298.488945	289.051545	611.962266	-167.892702	252.034141	530.925138	-180.031460	188.529497	474.978042	-165.602545	259.391060	523.693020	-219.096726	102.883100	381.540787	-156.234365	120.103532	391.554943	-240.791548	255.327009	209.839192	-189.188964	155.265976	257.288074	-137.747852	184.271837	244.156737	-244.094055	176.860623	969.708414	-507.645440	258.954096	963.726528	-502.954975	277.899689	991.449763	-487.907498	316.704352	895.738682	-505.645769	401.205819	834.202874	-486.210033	411.961863	808.021486	-383.996476	390.925467	729.637850	-505.769456	391.310357	644.619107	-488.478302	346.892002	565.558388	-489.539041	409.659558	643.897046	-451.976631	299.484524	465.870919	-473.667203	318.685223	465.197621	-395.696275	243.911694	396.010438	-434.914537	527.618106	443.959775	-452.450419	425.770568	400.779208	-510.032068	-165.095502	854.389116	-323.372352	32.773893	81.263256	-515.408203	32.909663	81.261454	-115.708973	
504	2.5200	558.476182	1192.386257	-255.390045	460.705550	1184.107439	-566.010843	500.173703	1225.215657	-428.560294	446.931877	1102.621643	-390.966407	532.773639	995.721763	-81.023356	698.901267	882.221916	-131.876574	462.287538	914.477754	-608.037692	675.576106	882.860810	-521.301826	-22.902548	1137.145475	-294.152569	105.965245	1128.161190	-436.575737	122.226402	1110.389892	-160.754851	144.486745	1091.585920	-412.976202	169.634258	1079.171337	-193.046607	7.811467	1166.248189	-251.007643	5.319503	1179.037086	-334.253862	88.915506	1021.096623	-130.356690	50.571275	1053.853457	-483.715027	178.050020	962.830989	-144.334067	248.369123	912.520376	-161.657099	291.657638	839.024020	-150.448080	267.342561	931.099795	-188.152037	340.819123	711.380858	-194.035646	307.710466	696.794548	-298.242936	290.405644	614.078649	-167.665427	252.450450	533.420532	-179.997242	188.348282	478.341551	-165.601100	259.709012	526.145659	-219.040936	101.745341	385.820595	-156.327695	118.840868	396.074081	-240.893103	253.208200	213.373466	-189.114660	153.402753	261.407561	-137.817719	189.376107	251.148744	-240.806491	177.088027	968.422628	-507.579428	259.236151	961.665652	-502.704299	278.371061	989.257861	-487.667485	316.386017	893.164550	-505.143147	400.441621	831.066217	-485.357953	410.853352	804.857432	-383.378278	390.402577	726.463345	-505.134111	391.582178	641.476829	-488.077519	347.845190	562.014008	-489.175539	409.778656	640.722050	-451.594769	301.442868	461.922157	-473.537696	320.686677	461.033589	-395.495610	246.299385	391.888898	-434.749844	530.016486	439.691691	-452.439870	427.895064	396.763781	-509.857777	-165.148923	854.620061	-322.379609	32.764541	81.281823	-515.404704	32.905277	81.379296	-115.753942	
505	2.5250	559.436023	1191.349133	-255.638540	461.532121	1182.429866	-566.006924	501.098563	1223.805157	-429.125988	447.400540	1101.556663	-391.056724	533.078713	995.736346	-80.338589	698.851792	882.212481	-131.775198	462.031625	913.028124	-608.005266	675.394974	882.744154	-521.340699	-22.233492	1137.490444	-294.757695	106.952944	1127.675800	-436.838902	122.425856	1110.701952	-160.996963	145.292353	1091.031776	-413.044769	169.843123	1079.304703	-193.114167	8.508568	1166.697384	-251.528571	6.237568	1179.255986	-334.868357	89.107926	1021.652721	-130.331348	51.402418	1053.459481	-483.831667	178.368945	963.835667	-144.361038	249.165032	913.942249	-161.422781	292.997741	840.736767	-150.141566	268.020006	932.657447	-187.981835	342.868467	713.366941	-193.659157	309.846044	698.788157	-297.920193	291.998548	616.466126	-167.218306	253.000807	536.029537	-179.874224	188.251495	481.497250	-165.592062	260.151521	528.694864	-218.959622	100.668535	390.164206	-156.381867	118.024669	400.146112	-240.892114	251.226866	216.986398	-189.157648	151.555952	265.612215	-137.866886	187.797941	255.116798	-240.736453	177.319242	967.131433	-507.517303	259.457390	959.541277	-502.480576	278.783628	986.975871	-487.384228	316.016267	890.521897	-504.632138	399.612931	827.971912	-484.500452	409.532016	801.790274	-382.676420	389.810516	723.378807	-504.652999	391.847246	638.404965	-487.808550	348.806986	558.490576	-488.903422	410.020572	637.717213	-451.244437	303.303765	457.823017	-473.252552	322.709305	456.928554	-395.383916	248.284069	387.937267	-434.774633	532.247156	435.211747	-452.334363	430.014387	392.611688	-509.736721	-165.066851	854.371580	-323.448331	32.772768	81.285076	-515.410546	32.903873	81.287761	-115.698111	
